<?xml version="1.0" encoding="UTF-8" standalone="no"?>
<svg width="200px" height="200px" viewBox="0 0 200 200" version="1.1" xmlns="http://www.w3.org/2000/svg" xmlns:xlink="http://www.w3.org/1999/xlink">
    <!-- Generator: Sketch 39.1 (31720) - http://www.bohemiancoding.com/sketch -->
    <title>security</title>
    <desc>Created with Sketch.</desc>
    <defs></defs>
    <g id="Page-1" stroke="none" stroke-width="1" fill="none" fill-rule="evenodd">
        <g id="security">
            <g id="Group" transform="translate(44.000000, 25.000000)">
                <path d="M112.5,62.5 L112.5,75 L81.25,75 L81.25,137.5 L112.5,137.5 L112.5,150 L0,150 L0,62.5 L18.75,62.5 L18.75,37.5 C18.75,16.79375 35.54375,0 56.25,0 C76.95625,0 93.75,16.79375 93.75,37.5 L93.75,62.5 L112.5,62.5 L112.5,62.5 Z M81.25,62.5 L81.25,37.5 C81.25,23.7125 70.03125,12.5 56.25,12.5 C42.46875,12.5 31.25,23.7125 31.25,37.5 L31.25,62.5 L81.25,62.5 L81.25,62.5 Z" id="Shape" fill="#545658"></path>
                <polygon id="Path" fill="#27B3CE" points="87.5 118.75 112.5 118.75 112.5 131.25 87.5 131.25"></polygon>
                <polygon id="Path" fill="#27B3CE" points="87.5 112.5 112.5 112.5 112.5 100 87.5 100"></polygon>
                <polygon id="Path" fill="#27B3CE" points="87.5 93.75 112.5 93.75 112.5 81.25 87.5 81.25"></polygon>
            </g>
        </g>
    </g>
</svg>