<?xml version="1.0" encoding="UTF-8" standalone="no"?>
<svg width="150px" height="150px" viewBox="0 0 150 150" version="1.1" xmlns="http://www.w3.org/2000/svg" xmlns:xlink="http://www.w3.org/1999/xlink">
    <!-- Generator: Sketch 3.8.3 (29802) - http://www.bohemiancoding.com/sketch -->
    <title>applications</title>
    <desc>Created with Sketch.</desc>
    <defs></defs>
    <g id="Page-1" stroke="none" stroke-width="1" fill="none" fill-rule="evenodd">
        <g id="applications">
            <g id="Group">
                <path d="M112.5,22.55 L74.775,0 L37.5,22.30625 L37.5,62.925 L0,83.075 L0,128.175 L38.35,150 L75,128.79375 L111.65,150 L150,128.175 L150,83.31875 L112.5,62.69375 L112.5,22.55 Z M105.35625,62.91875 L78.35,77.81875 L78.35,46.84375 L105.35625,30.975 L105.35625,62.91875 L105.35625,62.91875 Z M11.1875,85.19375 L41.05,69.38125 L67.53125,84.4875 L38.35625,101.15625 L11.1875,85.19375 L11.1875,85.19375 Z M41.91875,107.6125 L71.43125,90.75625 L71.43125,122.35625 L41.91875,139.5875 L41.91875,107.6125 L41.91875,107.6125 Z M82.61875,84.2 L109.1625,69.2625 L138.96875,85.475 L111.675,101.15625 L82.61875,84.2 L82.61875,84.2 Z M142.85625,123.71875 L115.225,139.5875 L115.225,107.6125 L142.85625,91.75 L142.85625,123.71875 Z M74.7625,8.48125 L101.4625,24.70625 L74.7875,40.3875 L48.6875,24.425 L74.7625,8.48125 L74.7625,8.48125 Z" id="Shape" fill="#545658"></path>
                <polygon id="Combined-Shape" fill="#27B3CE" points="138.96875 121.453606 119.1125 132.857139 119.1125 109.879402 138.96875 98.4803608"></polygon>
                <polygon id="Path" fill="#27B3CE" points="101.53125 60.5047775 82.175 71.1840879 82.175 48.9833068 101.53125 37.6096621"></polygon>
                <polygon id="Path" fill="#27B3CE" points="46.134375 109.772093 67.215625 97.7314042 67.215625 120.303789 46.134375 132.612346 46.134375 109.772093"></polygon>
            </g>
        </g>
    </g>
</svg>