<?xml version="1.0" encoding="UTF-8" standalone="no"?>
<svg width="150px" height="150px" viewBox="0 0 150 150" version="1.1" xmlns="http://www.w3.org/2000/svg" xmlns:xlink="http://www.w3.org/1999/xlink">
    <!-- Generator: Sketch 3.8.3 (29802) - http://www.bohemiancoding.com/sketch -->
    <title>device_management</title>
    <desc>Created with Sketch.</desc>
    <defs></defs>
    <g id="Page-1" stroke="none" stroke-width="1" fill="none" fill-rule="evenodd">
        <g id="device_management">
            <g id="Group">
                <path d="M135.840867,26.3652796 L150,26.3672983 L150,66 L110.014801,65.9888976 L110.008801,26.3703262 L124.173934,26.3662889 L124.160933,0 L135.851868,0.00807450567 L135.840867,26.3652796 Z M80.8364669,26.3652796 L94.9955996,26.3672983 L94.9955996,66 L55.0104008,65.9888976 L55.0044004,26.3703262 L69.1695336,26.3662889 L69.1565325,0 L80.8474678,0.00807450567 L80.8364669,26.3652796 Z M25.8320666,26.3652796 L39.9911993,26.3672983 L39.9911993,66 L0.00600048004,65.9888976 L0,26.3703262 L14.1651332,26.3662889 L14.1521322,0 L25.8430674,0.00807450567 L25.8320666,26.3652796 Z" id="Fill-123" fill="#27B3CE"></path>
                <path d="M123.756,85.7318689 L123.757,79.6790078 L136.25,79.6819749 L136.248,85.7318689 L123.756,85.7318689 Z M117.913,74.0019781 L117.921,85.7289018 L110.005,85.7279128 L110,124.56117 L124.161,124.56117 L124.155,149.998022 L135.836,150 L135.841,124.565126 L150,124.566115 L150,85.7387921 L142.082,85.734836 L142.082,74 L117.913,74.0019781 Z M68.756,85.7318689 L68.757,79.6790078 L81.25,79.6819749 L81.248,85.7318689 L68.756,85.7318689 Z M62.913,74.0019781 L62.921,85.7289018 L55.005,85.7279128 L55,124.56117 L69.161,124.56117 L69.155,149.998022 L80.836,150 L80.841,124.565126 L95,124.566115 L95,85.7387921 L87.082,85.734836 L87.082,74 L62.913,74.0019781 Z M13.756,85.7318689 L13.757,79.6790078 L26.25,79.6819749 L26.248,85.7318689 L13.756,85.7318689 Z M7.913,74.0019781 L7.921,85.7289018 L0.005,85.7279128 L0,124.56117 L14.161,124.56117 L14.155,149.998022 L25.836,150 L25.841,124.565126 L40,124.566115 L40,85.7387921 L32.082,85.734836 L32.082,74 L7.913,74.0019781 Z" id="Fill-124" fill="#545658"></path>
            </g>
        </g>
    </g>
</svg>