<?xml version="1.0" encoding="UTF-8" standalone="no"?>
<svg width="150px" height="150px" viewBox="0 0 150 150" version="1.1" xmlns="http://www.w3.org/2000/svg" xmlns:xlink="http://www.w3.org/1999/xlink">
    <!-- Generator: Sketch 3.8.3 (29802) - http://www.bohemiancoding.com/sketch -->
    <title>analytics</title>
    <desc>Created with Sketch.</desc>
    <defs></defs>
    <g id="Page-1" stroke="none" stroke-width="1" fill="none" fill-rule="evenodd">
        <g id="analytics">
            <g id="Group" transform="translate(0.000000, 30.000000)">
                <path d="M90,51.1510791 L38.8489209,51.1510791 L38.8489209,0 C16.9122302,3.17266187 0,21.8589928 0,44.676259 C0,69.7079137 20.2920863,90 45.323741,90 C68.1410072,90 86.8273381,73.0877698 90,51.1510791 Z" id="Combined-Shape" fill="#545658"></path>
                <path d="M47,0 L47,43 L90,43 C86.7786441,20.7128814 69.2871186,3.22135593 47,0 L47,0 Z" id="Path" fill="#27B3CE"></path>
                <polygon id="Path" fill="#545658" points="150 75 100 75 100 87 150 87"></polygon>
                <polygon id="Path" fill="#545658" points="150 50 100 50 100 62 150 62"></polygon>
                <polygon id="Path" fill="#545658" points="150 25 100 25 100 37 150 37"></polygon>
                <polygon id="Path" fill="#545658" points="150 0 100 0 100 12 150 12"></polygon>
            </g>
        </g>
    </g>
</svg>