<?xml version="1.0" encoding="UTF-8" standalone="no"?>
<svg width="150px" height="150px" viewBox="0 0 150 150" version="1.1" xmlns="http://www.w3.org/2000/svg" xmlns:xlink="http://www.w3.org/1999/xlink">
    <!-- Generator: Sketch 3.8.3 (29802) - http://www.bohemiancoding.com/sketch -->
    <title>connectivity</title>
    <desc>Created with Sketch.</desc>
    <defs></defs>
    <g id="Page-1" stroke="none" stroke-width="1" fill="none" fill-rule="evenodd">
        <g id="connectivity">
            <g id="Group-27" transform="translate(0.000000, 13.000000)">
                <path d="M79.6261384,47.0238061 C79.4886419,46.7550629 81.0136032,46.6175664 81.2885962,46.6175664 C81.5885886,46.6488156 80.4948664,48.4362702 79.6261384,47.0238061 L79.6261384,47.0238061 Z M70.938859,34.6116212 L71.3763479,34.4866244 L71.1701031,35.0303606 C71.5200942,35.6615946 71.2576009,36.0365851 71.2013523,36.3678266 L70.6013676,36.749067 C70.388873,37.0115603 71.6450911,37.0490593 71.6575908,37.0928082 C71.7075895,37.2240549 70.1388793,37.455299 70.4326219,37.7865406 C70.820112,38.3365267 73.7575374,36.9990606 73.2950492,37.0740587 C74.2012762,36.6178203 73.420046,36.5678216 72.907559,36.2990784 C72.7325635,35.4303504 72.5825673,34.0866346 72.0388311,33.555398 L72.4013219,33.1491584 C71.5575933,31.9366891 70.938859,34.6116212 70.938859,34.6116212 L70.938859,34.6116212 Z M124.999986,62.4984132 C124.999986,90.1102122 102.613055,112.497144 75.0012559,112.497144 C47.3894569,112.497144 25.0025253,90.1102122 25.0025253,62.4984132 C25.0025253,34.8866143 47.3894569,12.4996826 75.0012559,12.4996826 C102.613055,12.4996826 124.999986,34.8866143 124.999986,62.4984132 L124.999986,62.4984132 Z M89.9258769,40.7927143 C89.9071274,40.1989794 89.1571464,39.6427435 88.388416,40.6614676 C87.8446798,41.3614499 87.9384274,42.4364226 87.638435,42.9114105 C87.2196956,43.6238924 89.9383766,44.2863756 89.9383766,43.6176426 C90.0446239,42.498921 92.8945516,43.3613991 93.4507874,43.5176451 C94.450762,43.798888 96.0507214,42.6051683 94.3070157,41.9801841 C92.8633024,41.4614473 92.1070716,40.8989616 91.9820747,39.8739876 C91.9820747,39.8739876 92.7383055,39.1615057 92.4070639,39.2052546 C91.5258363,39.3052521 89.9258769,42.3739242 89.9258769,40.7927143 L89.9258769,40.7927143 Z M115.375231,62.4984132 C115.375231,58.3172694 114.662749,54.0923766 113.931517,51.8611833 C113.700273,51.161201 113.162787,50.5987153 112.481554,50.336222 C111.444081,49.9362321 107.075442,52.7486607 106.412958,51.361196 L104.106767,51.3924452 C103.619279,51.123702 102.275563,49.311248 101.650579,49.5362423 C100.413111,49.9862309 103.569281,53.4361433 104.431759,53.8861319 C105.250488,53.2673976 107.869171,52.0049296 108.437907,53.7298858 C109.525379,56.9860532 105.456733,60.535963 103.388035,62.4171653 C100.281864,65.223344 100.856849,60.5984614 98.744403,58.9735027 C97.6319313,58.1235243 97.644431,56.3048205 96.5257094,55.6798363 C96.0257221,55.3985935 93.7320303,52.7486607 93.74453,52.3924198 L93.6882814,53.0611528 C93.3070411,53.3486455 92.5008116,51.9799303 92.4133138,51.7611858 C92.4133138,52.9549055 94.3570144,54.8548573 94.9882484,55.8048331 C96.0882205,57.4422916 96.6757056,59.829731 98.0069218,61.1609472 C98.7319034,61.8859288 101.481834,64.8546034 102.194315,64.792105 L105.875472,63.0483992 C108.475406,63.6671335 99.7568773,76.0043203 98.9318983,77.5292816 C98.2506656,78.810499 99.4818843,81.9729188 99.3818868,83.4916302 C99.25689,85.2415858 97.8819249,85.8103213 96.5882078,86.7602972 C95.1819935,87.7790213 95.5132351,89.7664709 94.3320151,90.4977023 C92.2445681,91.7851696 90.750856,95.9663135 87.7821814,95.9475639 C86.9072036,95.9475639 83.1760483,97.403777 82.676061,95.9725633 C82.2948207,94.9413395 81.7948334,94.1538595 81.257347,93.1288855 C80.7323603,92.1289109 81.1948486,91.0914372 80.5636146,90.2102096 C80.1136261,89.5914753 78.6386635,88.1977607 78.5074168,87.4727791 C78.501167,86.847795 78.9761549,84.9415934 79.6386381,84.6103518 C80.5636146,84.1353639 79.8198835,82.7603988 79.7073864,81.9604191 C79.5198911,80.5354553 78.6324137,79.3542352 77.5636908,78.5230063 C75.9887308,77.316787 76.80746,76.3543114 77.1762006,74.6293552 C77.1762006,73.8043762 76.6762133,72.7169038 75.5699914,73.0481454 C73.2825495,73.7106285 73.9762819,71.2669406 72.3138241,71.3794377 C71.1201044,71.4669355 70.1388793,72.2231663 69.0326574,72.5544079 C67.6264431,72.9731473 66.2014793,72.2231663 64.8202643,72.0481707 C59.1329087,71.329439 57.2767059,64.829604 58.7516684,60.1359732 L58.5641732,57.3547938 C59.2079068,55.92983 60.5078738,54.3361204 61.645345,53.2548979 C62.2828288,52.6486633 63.101558,52.8049093 63.8577888,52.3361712 C65.0202593,51.6049398 65.032759,50.098728 66.1639802,49.1800013 C67.7826891,47.8675347 69.9888831,47.892534 72.0950796,47.6112912 C73.2200511,47.461295 77.4949425,46.5363185 78.1761752,47.3675474 C78.1761752,47.5175436 78.9449057,49.8112353 78.0949273,49.6799887 C79.838633,49.7737363 82.3385696,52.7049119 83.9947775,52.0236792 C84.8510058,51.6674382 84.5447636,49.0487547 86.2884693,50.3174725 C87.3509423,51.0799531 92.0945719,51.4174445 93.0820468,50.5987153 C93.6945312,50.098728 94.0257728,46.8363109 93.2882916,46.4738201 C93.7507798,46.9363083 90.8071046,46.9738074 90.5321115,46.8675601 C90.0508738,46.6925645 89.6008852,47.3300483 88.819655,46.9738074 C89.2883931,47.1925518 86.2134712,45.5425937 87.9384274,44.2738759 L85.7572328,44.705115 L85.2384959,45.8175867 C84.0260267,46.436321 83.1010502,43.6926407 82.638562,43.3863984 C82.1698239,43.0739064 78.538666,40.530221 79.526141,42.1926788 L82.7260597,45.3675981 C82.5698137,45.4738454 81.8823312,44.2113775 81.8823312,45.1301042 C82.0885759,44.586368 81.9698289,47.4737947 81.4635918,46.5300686 L81.4823413,45.4488461 C81.4823413,45.1051048 80.5698645,44.7738632 80.3823692,44.5363692 C79.8823819,43.9051353 78.538666,42.5239203 77.8074346,42.1926788 C77.6136895,42.0989311 74.7262628,42.5489197 74.482519,42.6426673 L73.7575374,43.8988854 L72.0638304,44.7613635 L71.4388463,46.1863274 C71.1513536,46.4300712 68.338925,47.3612975 68.3264253,47.3987966 C68.4514222,47.0925543 66.3639752,46.7050642 66.4952218,46.0988296 C66.6514679,45.4363464 67.3639498,43.3551492 67.1764545,42.5864188 C66.9827094,41.7864391 71.5138444,43.7363896 71.8075869,41.6364429 C71.9263339,40.7302159 71.9888323,39.6677429 70.5326193,39.5177467 C70.820112,39.5489959 73.3450479,38.5240219 73.7700371,38.0615336 C74.363772,37.3865508 75.7199876,36.274079 76.6949629,36.274079 C77.8449337,36.274079 77.59494,34.6053714 78.1261765,33.792892 C78.657413,34.0053866 77.8386838,35.3116035 78.4824175,35.84284 C78.4386686,35.4303504 80.2823718,36.0740841 80.4573673,35.9740866 C80.8761067,35.7553422 83.2197972,35.880339 82.8573064,34.7803669 C82.4635664,33.6553955 83.0635512,33.9928869 83.5885378,33.755393 C83.5010401,33.792892 84.9635029,31.2554564 85.2197464,32.0866853 C85.0447509,31.2304571 83.5197896,32.3866777 82.9885531,32.3429288 C81.7635842,32.2429314 82.2760712,30.2429821 82.7385594,29.6554971 C83.0948004,29.186759 81.7635842,28.6180234 81.7385848,29.5117507 C81.7260851,30.8429669 80.4886165,32.0429364 80.7761092,33.8116415 C81.2010984,36.4740739 77.7949349,33.1679079 77.5074422,33.3491533 C76.3699711,34.030386 75.4449946,32.4866752 76.0324797,31.549199 L78.6699127,29.6242479 C79.0886521,28.9055161 79.5823895,28.0680374 80.2261232,27.5243012 C82.3948181,25.7055974 82.9823032,27.1618104 85.1384985,27.3618053 C87.2509448,27.5555504 85.8447305,27.8617926 85.5634877,28.6680221 C85.2822448,29.4430025 86.7259582,29.7117456 87.2196956,29.068012 C87.5071883,28.6930215 88.1384223,27.7617951 88.4196652,27.0743126 C88.782156,26.1805853 92.0570728,26.2805828 89.7696309,24.9056177 C88.2634191,24.0056405 81.6698365,22.1869367 77.2574486,22.1869367 C76.3012229,22.1869367 75.6387397,23.2494097 74.9075082,23.8556443 C73.4700447,25.0431142 69.7888882,27.3868047 67.7326904,26.6805726 C65.6389936,25.955591 61.1453577,29.3492548 60.4328757,29.3680044 C60.1641326,29.380504 60.4328757,26.7993196 61.8703392,26.6118243 C61.2453551,26.705572 66.9014615,23.7556469 66.7514653,23.1369126 C66.5702199,22.411931 55.4392525,26.4618282 55.9392398,27.2743075 C56.1767338,27.649298 57.1454592,27.649298 55.8767414,28.4617774 C55.14551,28.8992663 54.3642798,31.6991952 53.689297,31.6991952 C51.6455988,32.5929225 51.5018525,29.9429898 49.2394099,33.3554031 L45.6207518,34.8116162 C40.2521381,40.5114714 36.5397324,47.7300382 35.1960165,55.7610843 C35.1460178,56.0798262 36.5397324,56.6735611 36.7209778,56.8923055 C37.1709663,57.4360417 37.1709663,59.7672325 37.3897108,60.535963 C37.9521965,62.467164 39.3334114,63.5421367 40.3833848,65.2983421 C41.0146188,66.3420656 42.0395927,68.9919983 41.714601,70.0919704 C42.1520899,69.3732387 46.0394912,73.3856368 46.7519731,74.2231155 C48.4269306,76.1918155 49.7206477,78.5792549 46.9957169,80.5229556 C46.1207391,81.1541895 48.3269331,85.0853397 47.189462,86.0540651 L45.7269991,86.4290556 C44.2957855,87.3102832 44.9395191,89.4789782 45.8144969,90.3977049 C53.1705601,98.0787598 63.5265472,102.872388 75.0012559,102.872388 C97.28819,102.872388 115.375231,84.797847 115.375231,62.4984132 L115.375231,62.4984132 Z M68.8639117,36.8053155 C69.3701488,36.5803212 70.0451317,36.5928209 70.1201298,35.9178381 L70.4388717,35.5178482 C70.582618,35.3053536 70.1701285,34.9616123 70.0076326,34.9241133 L69.401398,35.3428527 L69.1076555,35.4178508 L68.8326625,35.7678419 L68.8639117,35.961587 L68.5076707,36.3865762 C68.1639295,36.7365673 68.5201704,36.9553117 68.8639117,36.8053155 L68.8639117,36.8053155 Z" id="Shape" fill="#545658"></path>
                <path d="M14.5277912,46.986307 C5.8842607,35.367852 -4.43422732,18.1495392 2.02185876,7.11856926 C3.92181052,3.87490162 8.01545659,0 16.7402351,0 C25.3337669,0 35.7897514,3.781154 44.6582762,7.91229911 C40.8833721,10.0122458 37.3772111,12.5059325 34.1397933,15.3183611 C26.8712279,12.4184347 20.9088792,10.9684715 16.7402351,10.9684715 C15.1465255,10.9684715 12.3528465,11.187216 11.4903684,12.6621785 C10.2716493,14.7433757 10.8091357,21.624451 19.2089224,34.4866244 C17.2214729,38.4302743 15.6527627,42.617668 14.5277912,46.986307 L14.5277912,46.986307 Z" id="Path" fill="#00B2CD"></path>
                <path d="M115.862718,15.3183611 C120.600098,13.430909 135.937209,8.26229023 138.512143,12.6621785 C141.037079,16.9683192 135.255976,27.5680501 130.787339,34.4803746 C132.781039,38.4302743 134.349749,42.617668 135.47472,46.986307 C144.112001,35.3741019 154.430489,18.1495392 147.980653,7.12481911 C146.080701,3.87490162 141.987055,0 133.262277,0 C124.674995,0 114.21901,3.781154 105.350485,7.91229911 C109.11914,10.0122458 112.63155,12.5059325 115.862718,15.3183611 L115.862718,15.3183611 Z" id="Path" fill="#00B2CD"></path>
                <path d="M135.47472,78.0105194 C134.349749,82.3791584 132.781039,86.5665521 130.787339,90.5164518 C139.174627,103.359876 139.737112,110.247201 138.512143,112.334648 C135.937209,116.740786 120.625097,111.547168 115.881468,109.659716 C112.63155,112.478394 109.11914,114.984581 105.331736,117.090777 C113.994016,121.121925 124.581247,124.996826 133.262277,124.996826 C141.987055,124.996826 146.080701,121.121925 147.974403,117.878257 C154.486738,106.766039 143.943255,89.4102299 135.47472,78.0105194 L135.47472,78.0105194 Z" id="Path" fill="#00B2CD"></path>
                <path d="M34.1210438,109.665966 C29.3774142,111.553418 14.065303,116.747036 11.4903684,112.340898 C10.2716493,110.253451 10.834135,103.366126 19.2151722,90.5227017 C17.2277227,86.572802 15.6590125,82.3916581 14.5340411,78.023019 C6.05925625,89.4164798 -4.47797621,106.778539 2.02185876,117.878257 C3.92181052,121.121925 8.01545659,124.996826 16.7402351,124.996826 C25.4275145,124.996826 36.0084959,121.121925 44.6707759,117.097027 C40.8833721,114.984581 37.3709613,112.484644 34.1210438,109.665966 L34.1210438,109.665966 Z" id="Path" fill="#00B2CD"></path>
            </g>
        </g>
    </g>
</svg>